<?xml version="1.0" encoding="UTF-8" standalone="no"?>
<svg
   xmlns:dc="http://purl.org/dc/elements/1.1/"
   xmlns:cc="http://creativecommons.org/ns#"
   xmlns:rdf="http://www.w3.org/1999/02/22-rdf-syntax-ns#"
   xmlns:svg="http://www.w3.org/2000/svg"
   xmlns="http://www.w3.org/2000/svg"
   xmlns:sodipodi="http://sodipodi.sourceforge.net/DTD/sodipodi-0.dtd"
   xmlns:inkscape="http://www.inkscape.org/namespaces/inkscape"
   width="99.99987"
   height="100.06405"
   viewBox="0 0 26.458298 26.47528"
   version="1.1"
   id="svg900"
   inkscape:version="1.0.2 (e86c8708, 2021-01-15)"
   sodipodi:docname="eatinside_icon.svg">
  <defs
     id="defs894" />
  <sodipodi:namedview
     id="base"
     pagecolor="#ffffff"
     bordercolor="#666666"
     borderopacity="1.0"
     inkscape:pageopacity="0.0"
     inkscape:pageshadow="2"
     inkscape:zoom="1"
     inkscape:cx="-9.6161411"
     inkscape:cy="107.15289"
     inkscape:document-units="px"
     inkscape:current-layer="layer1"
     inkscape:document-rotation="0"
     showgrid="false"
     units="px"
     fit-margin-top="0"
     fit-margin-left="0"
     fit-margin-right="0"
     fit-margin-bottom="0"
     inkscape:window-width="1252"
     inkscape:window-height="769"
     inkscape:window-x="0"
     inkscape:window-y="25"
     inkscape:window-maximized="0" />
  <metadata
     id="metadata897">
    <rdf:RDF>
      <cc:Work
         rdf:about="">
        <dc:format>image/svg+xml</dc:format>
        <dc:type
           rdf:resource="http://purl.org/dc/dcmitype/StillImage" />
        <dc:title></dc:title>
      </cc:Work>
    </rdf:RDF>
  </metadata>
  <g
     inkscape:label="Layer 1"
     inkscape:groupmode="layer"
     id="layer1"
     transform="translate(-74.246354,-73.513715)">
    <path
       style="fill:#333333;fill-opacity:1;stroke-width:0.062131"
       d="m 78.793008,99.906898 c -0.649374,-0.21162 -1.269877,-0.766257 -1.556151,-1.390957 -0.207558,-0.45293 -0.236111,-0.99627 -0.124183,-2.363073 l 0.08301,-1.01371 -0.419951,-0.570634 c -1.164783,-1.582723 -1.999862,-3.554766 -2.35958,-5.572176 -0.163201,-0.915294 -0.22222,-2.762567 -0.117248,-3.669924 0.152073,-1.3145 0.507233,-2.66421 1.000029,-3.800408 l 0.245485,-0.565996 v -3.505902 -3.5059 l 0.211247,-0.211246 c 0.286558,-0.286558 0.643371,-0.298152 0.911892,-0.02963 l 0.181612,0.181614 v 2.458954 2.458954 h 0.994098 0.994095 v -2.331908 c 0,-2.501757 0.01496,-2.635707 0.317917,-2.847911 0.185555,-0.129967 0.545496,-0.129967 0.731051,0 0.302963,0.212204 0.317916,0.346154 0.317916,2.847911 v 2.331908 h 0.994096 0.994095 v -2.427888 -2.427889 l 0.181615,-0.181614 c 0.317677,-0.317677 0.891497,-0.218059 1.057893,0.183655 l 0.07158,0.172819 0.667617,-0.168276 c 1.162306,-0.292964 2.029948,-0.39408 3.333494,-0.388489 2.110115,0.0091 3.853258,0.404041 5.7564,1.304381 l 0.725008,0.342988 0.459282,-0.45928 c 0.536875,-0.536877 1.210323,-0.919626 1.951701,-1.109239 0.59372,-0.151848 1.183424,-0.160796 1.383031,-0.02099 0.303407,0.212516 0.317914,0.343868 0.317914,2.878439 v 2.362436 l 0.21125,0.276752 c 1.155902,1.514314 2.091937,3.981896 2.334747,6.154882 0.081,0.72527 0.0809,2.28243 -2.3e-4,2.95285 -0.24889,2.056294 -0.99597,4.11585 -2.098905,5.786317 l -0.437182,0.662143 -0.02038,1.88675 -0.02038,1.88675 -0.204536,0.415257 c -0.372145,0.75555 -1.026053,1.139952 -1.852297,1.088887 -0.276169,-0.01707 -0.544594,-0.07723 -0.717001,-0.160684 -0.530462,-0.256793 -0.973285,-0.82706 -1.078745,-1.38921 l -0.04132,-0.22023 -0.631626,0.32986 c -1.332336,0.695794 -2.816666,1.164797 -4.319676,1.364887 -0.871829,0.116072 -2.554558,0.114172 -3.455153,-0.0039 -1.222945,-0.160313 -2.867344,-0.638037 -3.78207,-1.09875 -0.131458,-0.06621 -0.245436,-0.11144 -0.253283,-0.100513 -0.0078,0.01093 -0.102821,0.145683 -0.21105,0.299456 -0.247704,0.35195 -0.539379,0.585314 -0.992046,0.793717 -0.42948,0.197733 -1.301893,0.254922 -1.735109,0.11374 z m 1.194317,-1.333987 c 0.322256,-0.146397 0.634455,-0.5049 0.687934,-0.789967 0.0235,-0.125273 -0.18454,-3.341513 -0.469231,-7.254123 -0.281298,-3.865983 -0.500691,-7.198047 -0.487541,-7.40458 0.02588,-0.406523 0.19929,-0.811028 0.475797,-1.109902 0.223796,-0.241899 0.854466,-0.535734 1.149999,-0.535793 0.572736,-1.25e-4 0.868703,-0.346822 0.835717,-0.978982 L 82.16138,80.14268 h -2.64057 -2.640568 l -0.01862,0.356884 c -0.02088,0.400023 0.09289,0.712029 0.308796,0.846862 0.07419,0.04633 0.328162,0.108506 0.56439,0.138167 1.03922,0.13049 1.661473,0.824424 1.661919,1.853371 1.25e-4,0.224574 -0.239868,3.525737 -0.533257,7.33592 -0.584521,7.591074 -0.574741,7.20464 -0.192848,7.61904 0.343914,0.37319 0.866794,0.484377 1.316706,0.279987 z m 9.38125,-0.03606 c 1.601719,-0.285147 3.000276,-0.80341 4.270355,-1.582467 0.763476,-0.46831 0.708538,-0.386723 0.821417,-1.21988 0.05533,-0.408383 0.117119,-0.83566 0.137314,-0.94951 l 0.03672,-0.206993 -0.489382,0.394013 c -1.357925,1.093304 -2.894224,1.826017 -4.541347,2.165917 -2.434654,0.50242 -5.092504,0.09175 -7.224226,-1.116217 -0.249011,-0.141103 -0.457689,-0.248783 -0.463731,-0.239286 -0.006,0.0095 0.01526,0.37143 0.04737,0.8043 l 0.05835,0.787036 0.473834,0.216434 c 1.054544,0.481693 2.506099,0.89232 3.642513,1.030423 0.695656,0.08454 2.556402,0.0363 3.230815,-0.08377 z m 6.952548,0.0653 c 0.447604,-0.18702 0.409976,0.918017 0.409976,-12.03998 v -11.66405 l -0.262021,0.09245 c -0.93921,0.331372 -1.669887,1.179057 -2.111315,2.449412 l -0.205102,0.590245 -0.01782,4.506136 -0.01782,4.506137 0.812253,0.398196 c 0.937214,0.459454 1.208071,0.668714 1.456594,1.125337 0.307298,0.564603 0.296827,0.732383 -0.332767,5.331997 -0.31055,2.26877 -0.564638,4.174823 -0.564638,4.235673 0,0.15483 0.287276,0.47952 0.45257,0.511513 0.07572,0.01467 0.145562,0.03047 0.155204,0.03511 0.0096,0.0046 0.110833,-0.03053 0.224871,-0.07817 z m -7.284912,-2.705773 c 1.647997,-0.282267 3.111883,-0.961084 4.401943,-2.041227 0.60714,-0.508343 1.428073,-1.409633 1.501538,-1.648513 0.0228,-0.07414 0.11908,-0.728447 0.21395,-1.454007 0.227736,-1.741737 0.306541,-1.578267 -1.107493,-2.297393 -0.934995,-0.475504 -1.088033,-0.574324 -1.182609,-0.763644 -0.100181,-0.200536 -0.10864,-0.541863 -0.108729,-4.386933 l -9.6e-5,-4.169481 -0.357255,-0.21903 c -0.949831,-0.582335 -2.216425,-1.068195 -3.308476,-1.269118 -0.817769,-0.150459 -2.49506,-0.150129 -3.261877,6.33e-4 -0.71377,0.140341 -1.311965,0.315133 -1.875369,0.547984 l -0.446355,0.184476 -0.01963,1.440453 c -0.01914,1.404308 -0.02371,1.449162 -0.182398,1.787546 -0.29079,0.620082 -0.885519,1.061067 -1.545404,1.145904 -0.483894,0.06221 -0.555365,0.08925 -0.66064,0.249913 -0.09644,0.14718 -0.0788,0.485763 0.293295,5.632527 l 0.3959,5.475936 0.560222,0.368504 c 1.175759,0.773403 2.471524,1.27464 3.792339,1.466986 0.709517,0.103327 2.141774,0.07785 2.897143,-0.05153 z M 77.748582,88.033314 c 0.190219,-2.528726 0.345258,-4.67585 0.344532,-4.771373 -0.0021,-0.28578 -0.228065,-0.45222 -0.67751,-0.499197 -0.320026,-0.03345 -0.642453,-0.140863 -1.01256,-0.337314 -0.06036,-0.03204 -0.451378,1.212961 -0.600215,1.911091 -0.590869,2.771523 -0.129546,5.752457 1.2785,8.261313 l 0.22784,0.405964 0.04678,-0.186394 c 0.02573,-0.102516 0.202412,-2.255356 0.392633,-4.78409 z m 21.06194,2.42311 c 0.916523,-2.840256 0.742794,-6.049716 -0.464115,-8.574076 l -0.237641,-0.497049 -1.25e-4,5.374332 -1.24e-4,5.374333 0.240715,-0.49705 c 0.132393,-0.273376 0.339958,-0.804596 0.461255,-1.18049 z M 93.20733,76.331143 c -0.453785,-0.348537 -2.378892,-1.041489 -3.468721,-1.248583 -1.232848,-0.234272 -2.792209,-0.271031 -4.04292,-0.0953 -0.400059,0.05621 -1.531044,0.317511 -1.903374,0.439755 l -0.295122,0.09689 v 0.71616 c 0,0.656859 0.009,0.712635 0.108729,0.673579 2.744389,-1.074789 5.964683,-0.914823 8.644213,0.429396 l 0.65704,0.329612 0.205525,-0.628168 c 0.195121,-0.596375 0.199909,-0.632478 0.09463,-0.713341 z"
       id="path847" />
  </g>
</svg>
