<?xml version="1.0" encoding="UTF-8" standalone="no"?>
<svg
   xmlns:dc="http://purl.org/dc/elements/1.1/"
   xmlns:cc="http://creativecommons.org/ns#"
   xmlns:rdf="http://www.w3.org/1999/02/22-rdf-syntax-ns#"
   xmlns:svg="http://www.w3.org/2000/svg"
   xmlns="http://www.w3.org/2000/svg"
   xmlns:sodipodi="http://sodipodi.sourceforge.net/DTD/sodipodi-0.dtd"
   xmlns:inkscape="http://www.inkscape.org/namespaces/inkscape"
   width="99.999962"
   height="94.887688"
   viewBox="0 0 26.458323 25.105701"
   version="1.1"
   id="svg1509"
   inkscape:version="1.0.2 (e86c8708, 2021-01-15)"
   sodipodi:docname="takeaway_icon.svg">
  <defs
     id="defs1503" />
  <sodipodi:namedview
     id="base"
     pagecolor="#ffffff"
     bordercolor="#666666"
     borderopacity="1.0"
     inkscape:pageopacity="0.0"
     inkscape:pageshadow="2"
     inkscape:zoom="1"
     inkscape:cx="92.355763"
     inkscape:cy="56.028562"
     inkscape:document-units="px"
     inkscape:current-layer="layer1"
     inkscape:document-rotation="0"
     showgrid="false"
     units="px"
     fit-margin-top="0"
     fit-margin-left="0"
     fit-margin-right="0"
     fit-margin-bottom="0"
     inkscape:window-width="1252"
     inkscape:window-height="769"
     inkscape:window-x="0"
     inkscape:window-y="25"
     inkscape:window-maximized="0" />
  <metadata
     id="metadata1506">
    <rdf:RDF>
      <cc:Work
         rdf:about="">
        <dc:format>image/svg+xml</dc:format>
        <dc:type
           rdf:resource="http://purl.org/dc/dcmitype/StillImage" />
        <dc:title></dc:title>
      </cc:Work>
    </rdf:RDF>
  </metadata>
  <g
     inkscape:label="Layer 1"
     inkscape:groupmode="layer"
     id="layer1"
     transform="translate(-70.549621,-71.694527)">
    <path
       style="fill:#333333;fill-opacity:1;stroke-width:0.0654183"
       d="m 70.976546,96.758123 c -0.19314,-0.0706 -0.391101,-0.305275 -0.425125,-0.503963 -0.0594,-0.346843 1.370663,-18.499988 1.469734,-18.656794 0.195718,-0.309776 0.257187,-0.319282 2.201289,-0.340459 l 1.839403,-0.02003 0.03615,-1.353748 c 0.03919,-1.467613 0.08001,-1.684098 0.447555,-2.373682 0.693194,-1.300568 2.166627,-2.017149 3.628597,-1.764714 1.073016,0.185277 2.068034,0.933114 2.529994,1.901498 0.313422,0.657009 0.374797,1.055344 0.374797,2.432495 v 1.165514 h 1.768398 c 1.943931,0 2.133072,0.03055 2.310235,0.373143 0.06407,0.123898 0.132044,0.662038 0.201034,1.591548 0.05733,0.772396 0.122187,1.588345 0.14413,1.813219 l 0.03989,0.408866 h 1.268037 1.268039 v -1.860773 c 0,-1.838046 0.0017,-1.862757 0.147191,-2.022898 0.232536,-0.256127 3.057327,-1.67689 3.334025,-1.67689 0.289688,0 0.542235,0.19398 0.640606,0.49205 0.06332,0.191867 0.05624,0.267446 -0.04433,0.47326 -0.108931,0.222924 -0.235771,0.303713 -1.411608,0.899114 l -1.291921,0.654183 -6.4e-5,1.52098 -1.19e-4,1.520974 h 1.768398 c 1.387384,0 1.81675,0.0202 1.992817,0.09377 0.205354,0.0858 0.291328,0.227495 1.011885,1.667646 0.879891,1.758606 0.920311,1.910067 0.59624,2.234138 -0.179712,0.179712 -0.222961,0.191224 -0.718354,0.191224 -0.493409,0 -0.529215,0.0094 -0.559659,0.14719 -0.01788,0.08096 -0.312767,2.428658 -0.655286,5.217115 -0.342521,2.78846 -0.653869,5.181726 -0.691889,5.318372 -0.04644,0.166926 -0.137718,0.290272 -0.278171,0.375912 -0.205159,0.125092 -0.419491,0.127371 -11.526422,0.122542 -6.22456,-0.0027 -11.361536,-0.02106 -11.415506,-0.04079 z m 16.158337,-1.494239 c 0,-0.09166 -0.264946,-2.28341 -0.588765,-4.870561 -0.323822,-2.587148 -0.588766,-4.720025 -0.588766,-4.739723 0,-0.01971 -0.231537,-0.03582 -0.514525,-0.03582 -0.597276,0 -0.798652,-0.108768 -0.928216,-0.50135 -0.07671,-0.23243 -0.06165,-0.271405 0.688046,-1.781626 0.42156,-0.849199 0.806616,-1.588965 0.85568,-1.643926 0.07539,-0.08446 0.0724,-0.325026 -0.01933,-1.553683 l -0.10855,-1.45376 h -1.425748 -1.425748 v 1.151362 1.151362 l -0.222422,0.222422 c -0.30172,0.30172 -0.677412,0.313929 -0.960141,0.0312 l -0.191228,-0.19122 v -1.18256 -1.182563 h -2.093389 -2.093386 v 1.048796 c 0,1.130852 -0.05592,1.396802 -0.334738,1.592095 -0.195372,0.136843 -0.574358,0.136843 -0.769731,0 -0.278821,-0.195293 -0.334737,-0.461243 -0.334737,-1.592095 v -1.048796 h -1.402487 -1.402484 l -0.03648,0.278029 c -0.02008,0.152915 -0.300954,3.766459 -0.624192,8.030102 -0.32324,4.263642 -0.605128,7.906627 -0.626416,8.095524 l -0.03871,0.343446 h 7.593237 7.59324 z M 76.383957,89.670212 c -0.279101,-0.219541 -0.31675,-0.487655 -0.293464,-2.089878 0.0225,-1.548721 0.03891,-1.636905 0.341817,-1.838382 0.111327,-0.07405 0.685492,-0.09533 3.015915,-0.111802 3.170486,-0.0224 3.292146,-0.01078 3.502766,0.334642 0.117105,0.192061 0.127483,0.338486 0.127707,1.801984 l 2.48e-4,1.592939 -0.222422,0.222421 -0.222424,0.222422 h -3.039673 c -2.967086,0 -3.043754,-0.0032 -3.210467,-0.134346 z m 5.3212,-1.926332 v -0.686894 h -2.093388 -2.093387 v 0.686894 0.686892 h 2.093387 2.093388 z m 11.296769,7.130602 c 0.04263,-0.287842 0.07943,-0.604303 0.08177,-0.703247 l 0.0043,-0.179902 H 90.75625 88.424502 l 0.04402,0.474283 c 0.02421,0.260857 0.0617,0.585069 0.08331,0.720473 l 0.0393,0.246193 2.166659,-0.01723 2.166661,-0.01723 z m 0.282555,-2.273288 c 1.31e-4,-0.009 0.07362,-0.590402 0.163275,-1.292013 0.08965,-0.701613 0.163123,-1.327176 0.163271,-1.390141 2.48e-4,-0.10728 -0.178744,-0.114482 -2.845425,-0.114482 h -2.845698 v 0.174267 c 0,0.190267 0.246704,2.253508 0.297914,2.491531 l 0.03167,0.147191 h 2.517362 c 1.384548,0 2.517482,-0.0074 2.517633,-0.01634 z m 0.523348,-4.186775 c 1.29e-4,-0.009 0.07362,-0.590402 0.163272,-1.292013 0.08965,-0.701613 0.163123,-1.327176 0.163274,-1.390141 2.48e-4,-0.107552 -0.203667,-0.114482 -3.368773,-0.114482 h -3.369046 v 0.174267 c 0,0.190267 0.246704,2.253506 0.297914,2.491531 l 0.03167,0.147191 h 3.040707 c 1.67239,0 3.04083,-0.0074 3.040981,-0.01634 z m 1.373511,-4.20432 c 0,-0.01864 -0.147457,-0.327745 -0.327688,-0.686892 l -0.327686,-0.652996 h -3.778755 -3.778755 l -0.341616,0.686894 -0.341614,0.686892 h 4.448057 c 2.446433,0 4.448057,-0.01525 4.448057,-0.0339 z M 81.705157,76.145866 c 0,-1.199874 -0.07762,-1.660131 -0.353746,-2.097542 -0.227804,-0.360865 -0.658366,-0.706593 -1.045598,-0.839584 -1.08494,-0.372614 -2.261343,0.166449 -2.661501,1.219576 -0.108239,0.284862 -0.12593,0.505944 -0.12593,1.57367 v 1.242246 h 2.093387 2.093388 z"
       id="path863" />
  </g>
</svg>
